<mxfile host="Electron" agent="Mozilla/5.0 (Windows NT 10.0; Win64; x64) AppleWebKit/537.36 (KHTML, like Gecko) draw.io/24.7.5 Chrome/126.0.6478.183 Electron/31.3.0 Safari/537.36" version="24.7.5">
  <diagram name="Page-1" id="fVLMca1KutE5p8QigjU6">
    <mxGraphModel dx="1050" dy="655" grid="1" gridSize="10" guides="1" tooltips="1" connect="1" arrows="1" fold="1" page="1" pageScale="1" pageWidth="1800" pageHeight="1600" math="0" shadow="0">
      <root>
        <mxCell id="0" />
        <mxCell id="1" parent="0" />
        <mxCell id="3T6ftLPHdNsR3dC_09CY-1" value="fs_description.txt" style="ellipse;whiteSpace=wrap;html=1;" vertex="1" parent="1">
          <mxGeometry x="340" y="980" width="120" height="80" as="geometry" />
        </mxCell>
        <mxCell id="3T6ftLPHdNsR3dC_09CY-2" value="script.sh" style="rounded=0;whiteSpace=wrap;html=1;" vertex="1" parent="1">
          <mxGeometry x="100" y="820" width="120" height="60" as="geometry" />
        </mxCell>
        <mxCell id="3T6ftLPHdNsR3dC_09CY-3" value="documents.carpet" style="rounded=1;whiteSpace=wrap;html=1;" vertex="1" parent="1">
          <mxGeometry x="580" y="820" width="120" height="60" as="geometry" />
        </mxCell>
        <mxCell id="3T6ftLPHdNsR3dC_09CY-4" value="script.py" style="shape=parallelogram;perimeter=parallelogramPerimeter;whiteSpace=wrap;html=1;fixedSize=1;" vertex="1" parent="1">
          <mxGeometry x="250" y="820" width="120" height="60" as="geometry" />
        </mxCell>
        <mxCell id="3T6ftLPHdNsR3dC_09CY-6" value="horse.jpg" style="shape=trapezoid;perimeter=trapezoidPerimeter;whiteSpace=wrap;html=1;fixedSize=1;" vertex="1" parent="1">
          <mxGeometry x="430" y="820" width="120" height="60" as="geometry" />
        </mxCell>
        <mxCell id="3T6ftLPHdNsR3dC_09CY-7" value="stable_diffusion.py" style="rounded=0;whiteSpace=wrap;html=1;" vertex="1" parent="1">
          <mxGeometry x="180" y="680" width="120" height="60" as="geometry" />
        </mxCell>
        <mxCell id="3T6ftLPHdNsR3dC_09CY-8" value="national_id.pdf" style="rounded=1;whiteSpace=wrap;html=1;" vertex="1" parent="1">
          <mxGeometry x="650" y="720" width="120" height="60" as="geometry" />
        </mxCell>
        <mxCell id="3T6ftLPHdNsR3dC_09CY-9" value="resume.doc" style="rounded=1;whiteSpace=wrap;html=1;" vertex="1" parent="1">
          <mxGeometry x="510" y="720" width="120" height="60" as="geometry" />
        </mxCell>
        <mxCell id="3T6ftLPHdNsR3dC_09CY-10" value="car.jpg" style="rounded=0;whiteSpace=wrap;html=1;" vertex="1" parent="1">
          <mxGeometry x="340" y="540" width="120" height="60" as="geometry" />
        </mxCell>
        <mxCell id="3T6ftLPHdNsR3dC_09CY-11" value="" style="endArrow=none;html=1;rounded=0;entryX=0.5;entryY=1;entryDx=0;entryDy=0;exitX=0.5;exitY=0;exitDx=0;exitDy=0;" edge="1" parent="1" source="3T6ftLPHdNsR3dC_09CY-1" target="3T6ftLPHdNsR3dC_09CY-3">
          <mxGeometry width="50" height="50" relative="1" as="geometry">
            <mxPoint x="380" y="790" as="sourcePoint" />
            <mxPoint x="430" y="740" as="targetPoint" />
          </mxGeometry>
        </mxCell>
        <mxCell id="3T6ftLPHdNsR3dC_09CY-12" value="" style="endArrow=none;html=1;rounded=0;exitX=0.5;exitY=0;exitDx=0;exitDy=0;entryX=0.5;entryY=1;entryDx=0;entryDy=0;" edge="1" parent="1" source="3T6ftLPHdNsR3dC_09CY-1" target="3T6ftLPHdNsR3dC_09CY-6">
          <mxGeometry width="50" height="50" relative="1" as="geometry">
            <mxPoint x="380" y="790" as="sourcePoint" />
            <mxPoint x="430" y="740" as="targetPoint" />
          </mxGeometry>
        </mxCell>
        <mxCell id="3T6ftLPHdNsR3dC_09CY-13" value="" style="endArrow=none;html=1;rounded=0;exitX=0.5;exitY=0;exitDx=0;exitDy=0;entryX=0.5;entryY=1;entryDx=0;entryDy=0;" edge="1" parent="1" source="3T6ftLPHdNsR3dC_09CY-1" target="3T6ftLPHdNsR3dC_09CY-2">
          <mxGeometry width="50" height="50" relative="1" as="geometry">
            <mxPoint x="380" y="790" as="sourcePoint" />
            <mxPoint x="430" y="740" as="targetPoint" />
          </mxGeometry>
        </mxCell>
        <mxCell id="3T6ftLPHdNsR3dC_09CY-14" value="" style="endArrow=none;html=1;rounded=0;entryX=0.5;entryY=1;entryDx=0;entryDy=0;exitX=0.5;exitY=0;exitDx=0;exitDy=0;" edge="1" parent="1" source="3T6ftLPHdNsR3dC_09CY-1" target="3T6ftLPHdNsR3dC_09CY-4">
          <mxGeometry width="50" height="50" relative="1" as="geometry">
            <mxPoint x="380" y="790" as="sourcePoint" />
            <mxPoint x="430" y="740" as="targetPoint" />
          </mxGeometry>
        </mxCell>
        <mxCell id="3T6ftLPHdNsR3dC_09CY-15" value="" style="endArrow=none;html=1;rounded=0;exitX=0.5;exitY=0;exitDx=0;exitDy=0;entryX=0.439;entryY=0.967;entryDx=0;entryDy=0;entryPerimeter=0;" edge="1" parent="1" source="3T6ftLPHdNsR3dC_09CY-3" target="3T6ftLPHdNsR3dC_09CY-8">
          <mxGeometry width="50" height="50" relative="1" as="geometry">
            <mxPoint x="380" y="790" as="sourcePoint" />
            <mxPoint x="430" y="740" as="targetPoint" />
          </mxGeometry>
        </mxCell>
        <mxCell id="3T6ftLPHdNsR3dC_09CY-16" value="" style="endArrow=none;html=1;rounded=0;exitX=0.5;exitY=0;exitDx=0;exitDy=0;entryX=0.5;entryY=1;entryDx=0;entryDy=0;" edge="1" parent="1" source="3T6ftLPHdNsR3dC_09CY-3" target="3T6ftLPHdNsR3dC_09CY-9">
          <mxGeometry width="50" height="50" relative="1" as="geometry">
            <mxPoint x="380" y="790" as="sourcePoint" />
            <mxPoint x="430" y="740" as="targetPoint" />
          </mxGeometry>
        </mxCell>
        <mxCell id="3T6ftLPHdNsR3dC_09CY-17" value="" style="endArrow=none;html=1;rounded=0;exitX=0.5;exitY=0;exitDx=0;exitDy=0;entryX=0.5;entryY=1;entryDx=0;entryDy=0;" edge="1" parent="1" source="3T6ftLPHdNsR3dC_09CY-2" target="3T6ftLPHdNsR3dC_09CY-7">
          <mxGeometry width="50" height="50" relative="1" as="geometry">
            <mxPoint x="380" y="790" as="sourcePoint" />
            <mxPoint x="430" y="740" as="targetPoint" />
          </mxGeometry>
        </mxCell>
        <mxCell id="3T6ftLPHdNsR3dC_09CY-18" value="" style="endArrow=none;html=1;rounded=0;exitX=0.5;exitY=0;exitDx=0;exitDy=0;entryX=0.5;entryY=1;entryDx=0;entryDy=0;" edge="1" parent="1" source="3T6ftLPHdNsR3dC_09CY-4" target="3T6ftLPHdNsR3dC_09CY-7">
          <mxGeometry width="50" height="50" relative="1" as="geometry">
            <mxPoint x="380" y="790" as="sourcePoint" />
            <mxPoint x="430" y="740" as="targetPoint" />
          </mxGeometry>
        </mxCell>
        <mxCell id="3T6ftLPHdNsR3dC_09CY-19" value="" style="endArrow=none;html=1;rounded=0;exitX=0.5;exitY=0;exitDx=0;exitDy=0;entryX=0.5;entryY=1;entryDx=0;entryDy=0;" edge="1" parent="1" source="3T6ftLPHdNsR3dC_09CY-6" target="3T6ftLPHdNsR3dC_09CY-10">
          <mxGeometry width="50" height="50" relative="1" as="geometry">
            <mxPoint x="510" y="860" as="sourcePoint" />
            <mxPoint x="560" y="810" as="targetPoint" />
          </mxGeometry>
        </mxCell>
        <mxCell id="3T6ftLPHdNsR3dC_09CY-21" value="" style="endArrow=none;html=1;rounded=0;exitX=0.5;exitY=0;exitDx=0;exitDy=0;entryX=0.5;entryY=1;entryDx=0;entryDy=0;" edge="1" parent="1" source="3T6ftLPHdNsR3dC_09CY-1" target="3T6ftLPHdNsR3dC_09CY-10">
          <mxGeometry width="50" height="50" relative="1" as="geometry">
            <mxPoint x="510" y="860" as="sourcePoint" />
            <mxPoint x="400" y="620" as="targetPoint" />
          </mxGeometry>
        </mxCell>
        <mxCell id="3T6ftLPHdNsR3dC_09CY-22" value="photo.png" style="rhombus;whiteSpace=wrap;html=1;" vertex="1" parent="1">
          <mxGeometry x="530" y="610" width="80" height="80" as="geometry" />
        </mxCell>
        <mxCell id="3T6ftLPHdNsR3dC_09CY-23" value="" style="endArrow=none;html=1;rounded=0;entryX=0.5;entryY=1;entryDx=0;entryDy=0;exitX=0.5;exitY=0;exitDx=0;exitDy=0;" edge="1" parent="1" source="3T6ftLPHdNsR3dC_09CY-9" target="3T6ftLPHdNsR3dC_09CY-22">
          <mxGeometry width="50" height="50" relative="1" as="geometry">
            <mxPoint x="510" y="860" as="sourcePoint" />
            <mxPoint x="560" y="810" as="targetPoint" />
          </mxGeometry>
        </mxCell>
        <mxCell id="3T6ftLPHdNsR3dC_09CY-24" value="" style="endArrow=none;dashed=1;html=1;dashPattern=1 3;strokeWidth=2;rounded=0;entryX=0.5;entryY=1;entryDx=0;entryDy=0;exitX=0;exitY=0.5;exitDx=0;exitDy=0;" edge="1" parent="1" source="3T6ftLPHdNsR3dC_09CY-22" target="3T6ftLPHdNsR3dC_09CY-10">
          <mxGeometry width="50" height="50" relative="1" as="geometry">
            <mxPoint x="510" y="860" as="sourcePoint" />
            <mxPoint x="560" y="810" as="targetPoint" />
          </mxGeometry>
        </mxCell>
        <mxCell id="3T6ftLPHdNsR3dC_09CY-25" value="" style="endArrow=none;dashed=1;html=1;dashPattern=1 3;strokeWidth=2;rounded=0;exitX=0.5;exitY=0;exitDx=0;exitDy=0;entryX=0.5;entryY=1;entryDx=0;entryDy=0;" edge="1" parent="1" source="3T6ftLPHdNsR3dC_09CY-7" target="3T6ftLPHdNsR3dC_09CY-10">
          <mxGeometry width="50" height="50" relative="1" as="geometry">
            <mxPoint x="510" y="860" as="sourcePoint" />
            <mxPoint x="400" y="570" as="targetPoint" />
          </mxGeometry>
        </mxCell>
      </root>
    </mxGraphModel>
  </diagram>
</mxfile>
